<svg width="234" height="265" viewBox="0 0 234 265" fill="none" xmlns="http://www.w3.org/2000/svg">
<path d="M8.77633 245.83C9.15226 245.309 9.75581 245 10.3985 245H33C34.1046 245 35 245.895 35 247V256C35 257.105 34.1046 258 33 258H3.90813C2.27723 258 1.332 256.153 2.28594 254.83L8.77633 245.83Z" fill="#3FD0C9"/>
<path d="M65.56 244.8C65.8533 244.947 66.02 245.173 66.06 245.48C66.1133 245.787 66.04 246.067 65.84 246.32C65.6933 246.52 65.5 246.633 65.26 246.66C65.0333 246.687 64.8067 246.64 64.58 246.52C64.1933 246.32 63.7867 246.16 63.36 246.04C62.9333 245.92 62.48 245.86 62 245.86C61.24 245.86 60.5533 245.987 59.94 246.24C59.34 246.48 58.82 246.833 58.38 247.3C57.94 247.753 57.6 248.293 57.36 248.92C57.1333 249.547 57.02 250.24 57.02 251C57.02 251.84 57.1467 252.587 57.4 253.24C57.6533 253.88 58 254.427 58.44 254.88C58.8933 255.32 59.42 255.653 60.02 255.88C60.6333 256.093 61.2933 256.2 62 256.2C62.4533 256.2 62.8933 256.147 63.32 256.04C63.76 255.933 64.1733 255.773 64.56 255.56C64.8 255.44 65.0333 255.4 65.26 255.44C65.5 255.467 65.6933 255.58 65.84 255.78C66.0667 256.06 66.1467 256.347 66.08 256.64C66.0267 256.92 65.86 257.133 65.58 257.28C65.2467 257.467 64.88 257.627 64.48 257.76C64.08 257.893 63.6733 258 63.26 258.08C62.8467 258.16 62.4267 258.2 62 258.2C61.04 258.2 60.1333 258.04 59.28 257.72C58.4267 257.4 57.6667 256.933 57 256.32C56.3333 255.707 55.8067 254.953 55.42 254.06C55.0467 253.167 54.86 252.147 54.86 251C54.86 249.973 55.0333 249.027 55.38 248.16C55.74 247.28 56.24 246.527 56.88 245.9C57.5333 245.26 58.2933 244.767 59.16 244.42C60.0267 244.06 60.9733 243.88 62 243.88C62.64 243.88 63.26 243.96 63.86 244.12C64.4733 244.28 65.04 244.507 65.56 244.8ZM81.0948 251C81.0948 252.013 80.9282 252.96 80.5948 253.84C80.2615 254.707 79.7882 255.467 79.1748 256.12C78.5748 256.773 77.8615 257.287 77.0348 257.66C76.2082 258.02 75.3015 258.2 74.3148 258.2C73.3415 258.2 72.4415 258.02 71.6148 257.66C70.7882 257.287 70.0682 256.773 69.4548 256.12C68.8548 255.467 68.3882 254.707 68.0548 253.84C67.7348 252.96 67.5748 252.013 67.5748 251C67.5748 249.987 67.7348 249.047 68.0548 248.18C68.3882 247.3 68.8548 246.533 69.4548 245.88C70.0682 245.227 70.7882 244.72 71.6148 244.36C72.4415 243.987 73.3415 243.8 74.3148 243.8C75.3015 243.8 76.2082 243.987 77.0348 244.36C77.8615 244.72 78.5748 245.227 79.1748 245.88C79.7882 246.533 80.2615 247.3 80.5948 248.18C80.9282 249.047 81.0948 249.987 81.0948 251ZM78.9348 251C78.9348 250.013 78.7348 249.127 78.3348 248.34C77.9482 247.553 77.4082 246.933 76.7148 246.48C76.0215 246.027 75.2215 245.8 74.3148 245.8C73.4215 245.8 72.6282 246.027 71.9348 246.48C71.2415 246.933 70.7015 247.553 70.3148 248.34C69.9282 249.113 69.7348 250 69.7348 251C69.7348 251.987 69.9282 252.873 70.3148 253.66C70.7015 254.447 71.2415 255.067 71.9348 255.52C72.6282 255.973 73.4215 256.2 74.3148 256.2C75.2215 256.2 76.0215 255.973 76.7148 255.52C77.4082 255.067 77.9482 254.447 78.3348 253.66C78.7348 252.873 78.9348 251.987 78.9348 251ZM94.0497 244C94.3164 244 94.5297 244.093 94.6897 244.28C94.863 244.453 94.9497 244.673 94.9497 244.94V256.98C94.9497 257.273 94.8497 257.52 94.6497 257.72C94.463 257.907 94.223 258 93.9297 258C93.7964 258 93.6497 257.973 93.4897 257.92C93.343 257.867 93.2297 257.793 93.1497 257.7L84.9297 247.04L85.3897 246.78V257.08C85.3897 257.333 85.303 257.553 85.1297 257.74C84.9564 257.913 84.7364 258 84.4697 258C84.1897 258 83.963 257.913 83.7897 257.74C83.6297 257.553 83.5497 257.333 83.5497 257.08V245.02C83.5497 244.713 83.6497 244.467 83.8497 244.28C84.0497 244.093 84.2897 244 84.5697 244C84.7164 244 84.8697 244.033 85.0297 244.1C85.203 244.153 85.3297 244.24 85.4097 244.36L93.4297 254.8L93.1297 255.08V244.94C93.1297 244.673 93.2164 244.453 93.3897 244.28C93.563 244.093 93.783 244 94.0497 244ZM102.518 258.2C101.558 258.2 100.704 258.067 99.9577 257.8C99.211 257.533 98.4977 257.093 97.8177 256.48C97.671 256.373 97.5577 256.247 97.4777 256.1C97.411 255.94 97.3777 255.78 97.3777 255.62C97.3777 255.367 97.471 255.14 97.6577 254.94C97.8443 254.74 98.0777 254.64 98.3577 254.64C98.571 254.64 98.771 254.713 98.9577 254.86C99.4643 255.327 99.991 255.68 100.538 255.92C101.098 256.16 101.751 256.28 102.498 256.28C103.031 256.28 103.518 256.193 103.958 256.02C104.411 255.847 104.771 255.613 105.038 255.32C105.304 255.027 105.438 254.687 105.438 254.3C105.438 253.82 105.298 253.427 105.018 253.12C104.751 252.8 104.358 252.54 103.838 252.34C103.331 252.127 102.718 251.947 101.998 251.8C101.331 251.68 100.731 251.513 100.198 251.3C99.6777 251.087 99.231 250.82 98.8577 250.5C98.4843 250.167 98.1977 249.773 97.9977 249.32C97.7977 248.867 97.6977 248.34 97.6977 247.74C97.6977 246.927 97.911 246.227 98.3377 245.64C98.7643 245.053 99.3443 244.6 100.078 244.28C100.811 243.96 101.638 243.8 102.558 243.8C103.398 243.8 104.184 243.933 104.918 244.2C105.651 244.453 106.244 244.8 106.698 245.24C107.018 245.52 107.178 245.82 107.178 246.14C107.178 246.38 107.078 246.607 106.878 246.82C106.691 247.02 106.471 247.12 106.218 247.12C106.031 247.12 105.871 247.067 105.738 246.96C105.524 246.733 105.238 246.533 104.878 246.36C104.518 246.173 104.131 246.02 103.718 245.9C103.318 245.78 102.931 245.72 102.558 245.72C101.958 245.72 101.444 245.807 101.018 245.98C100.591 246.14 100.264 246.367 100.038 246.66C99.811 246.94 99.6977 247.273 99.6977 247.66C99.6977 248.113 99.8243 248.487 100.078 248.78C100.344 249.073 100.711 249.313 101.178 249.5C101.644 249.673 102.178 249.833 102.778 249.98C103.511 250.14 104.164 250.32 104.738 250.52C105.324 250.72 105.818 250.98 106.218 251.3C106.618 251.607 106.924 251.993 107.138 252.46C107.351 252.927 107.458 253.507 107.458 254.2C107.458 255 107.231 255.7 106.778 256.3C106.324 256.9 105.724 257.367 104.978 257.7C104.244 258.033 103.424 258.2 102.518 258.2ZM119.857 243.98C120.15 243.98 120.384 244.08 120.557 244.28C120.73 244.467 120.817 244.707 120.817 245V252.58C120.817 253.647 120.584 254.6 120.117 255.44C119.65 256.28 119.01 256.94 118.197 257.42C117.384 257.887 116.444 258.12 115.377 258.12C114.324 258.12 113.384 257.887 112.557 257.42C111.744 256.94 111.097 256.28 110.617 255.44C110.15 254.6 109.917 253.647 109.917 252.58V245C109.917 244.707 110.017 244.467 110.217 244.28C110.417 244.08 110.677 243.98 110.997 243.98C111.25 243.98 111.477 244.08 111.677 244.28C111.89 244.467 111.997 244.707 111.997 245V252.58C111.997 253.287 112.15 253.907 112.457 254.44C112.777 254.96 113.197 255.373 113.717 255.68C114.237 255.973 114.79 256.12 115.377 256.12C116.017 256.12 116.604 255.973 117.137 255.68C117.67 255.373 118.097 254.96 118.417 254.44C118.75 253.907 118.917 253.287 118.917 252.58V245C118.917 244.707 118.997 244.467 119.157 244.28C119.33 244.08 119.564 243.98 119.857 243.98ZM131.817 256.04C132.097 256.04 132.33 256.133 132.517 256.32C132.717 256.507 132.817 256.74 132.817 257.02C132.817 257.3 132.717 257.533 132.517 257.72C132.33 257.907 132.097 258 131.817 258H125.097C124.804 258 124.557 257.907 124.357 257.72C124.17 257.52 124.077 257.273 124.077 256.98V245.02C124.077 244.727 124.177 244.487 124.377 244.3C124.577 244.1 124.837 244 125.157 244C125.424 244 125.657 244.1 125.857 244.3C126.07 244.487 126.177 244.727 126.177 245.02V256.38L125.757 256.04H131.817ZM137.953 258C137.633 258 137.373 257.907 137.173 257.72C136.987 257.52 136.893 257.273 136.893 256.98V245H139.033V256.98C139.033 257.273 138.927 257.52 138.713 257.72C138.513 257.907 138.26 258 137.953 258ZM133.413 245.92C133.133 245.92 132.893 245.833 132.693 245.66C132.493 245.473 132.393 245.233 132.393 244.94C132.393 244.66 132.493 244.433 132.693 244.26C132.893 244.087 133.133 244 133.413 244H142.513C142.793 244 143.027 244.093 143.213 244.28C143.413 244.453 143.513 244.68 143.513 244.96C143.513 245.253 143.413 245.487 143.213 245.66C143.027 245.833 142.793 245.92 142.513 245.92H133.413ZM147.876 256.98C147.863 257.273 147.75 257.52 147.536 257.72C147.336 257.907 147.096 258 146.816 258C146.51 258 146.256 257.907 146.056 257.72C145.87 257.52 145.776 257.273 145.776 256.98V245.02C145.776 244.727 145.876 244.487 146.076 244.3C146.276 244.1 146.536 244 146.856 244C147.123 244 147.356 244.1 147.556 244.3C147.77 244.487 147.876 244.727 147.876 245.02V256.98ZM161.608 244C161.875 244 162.088 244.093 162.248 244.28C162.422 244.453 162.508 244.673 162.508 244.94V256.98C162.508 257.273 162.408 257.52 162.208 257.72C162.022 257.907 161.782 258 161.488 258C161.355 258 161.208 257.973 161.048 257.92C160.902 257.867 160.788 257.793 160.708 257.7L152.488 247.04L152.948 246.78V257.08C152.948 257.333 152.862 257.553 152.688 257.74C152.515 257.913 152.295 258 152.028 258C151.748 258 151.522 257.913 151.348 257.74C151.188 257.553 151.108 257.333 151.108 257.08V245.02C151.108 244.713 151.208 244.467 151.408 244.28C151.608 244.093 151.848 244 152.128 244C152.275 244 152.428 244.033 152.588 244.1C152.762 244.153 152.888 244.24 152.968 244.36L160.988 254.8L160.688 255.08V244.94C160.688 244.673 160.775 244.453 160.948 244.28C161.122 244.093 161.342 244 161.608 244ZM172.276 258.2C171.263 258.2 170.316 258.02 169.436 257.66C168.556 257.287 167.783 256.773 167.116 256.12C166.463 255.453 165.95 254.687 165.576 253.82C165.203 252.953 165.016 252.013 165.016 251C165.016 249.987 165.203 249.047 165.576 248.18C165.95 247.313 166.463 246.553 167.116 245.9C167.783 245.233 168.556 244.72 169.436 244.36C170.316 243.987 171.263 243.8 172.276 243.8C172.93 243.8 173.563 243.873 174.176 244.02C174.79 244.167 175.343 244.38 175.836 244.66C176.01 244.753 176.136 244.88 176.216 245.04C176.296 245.187 176.336 245.333 176.336 245.48C176.336 245.76 176.243 246.007 176.056 246.22C175.883 246.42 175.663 246.52 175.396 246.52C175.303 246.52 175.203 246.507 175.096 246.48C175.003 246.453 174.916 246.42 174.836 246.38C174.463 246.193 174.063 246.053 173.636 245.96C173.21 245.853 172.756 245.8 172.276 245.8C171.316 245.8 170.45 246.033 169.676 246.5C168.903 246.953 168.29 247.573 167.836 248.36C167.396 249.147 167.176 250.027 167.176 251C167.176 251.96 167.396 252.84 167.836 253.64C168.29 254.427 168.903 255.053 169.676 255.52C170.45 255.973 171.316 256.2 172.276 256.2C172.743 256.2 173.236 256.147 173.756 256.04C174.276 255.92 174.716 255.767 175.076 255.58L174.916 256.12V252.32L175.236 252.6H172.616C172.323 252.6 172.076 252.507 171.876 252.32C171.69 252.133 171.596 251.893 171.596 251.6C171.596 251.307 171.69 251.067 171.876 250.88C172.076 250.693 172.323 250.6 172.616 250.6H176.076C176.356 250.6 176.59 250.7 176.776 250.9C176.976 251.087 177.076 251.327 177.076 251.62V256.06C177.076 256.273 177.023 256.453 176.916 256.6C176.81 256.747 176.69 256.867 176.556 256.96C175.956 257.333 175.29 257.633 174.556 257.86C173.836 258.087 173.076 258.2 172.276 258.2Z" fill="#00619A"/>
<path d="M225.224 245.83C224.848 245.309 224.244 245 223.601 245H201C199.895 245 199 245.895 199 247V256C199 257.105 199.895 258 201 258H230.092C231.723 258 232.668 256.153 231.714 254.83L225.224 245.83Z" fill="#3FD0C9"/>
<path d="M39.5 187.8C41.228 187.8 42.764 188.124 44.108 188.772C45.452 189.42 46.58 190.332 47.492 191.508C48.428 192.66 49.124 194.004 49.58 195.54C50.06 197.052 50.3 198.672 50.3 200.4C50.3 202.728 49.88 204.852 49.04 206.772C48.2 208.668 46.976 210.18 45.368 211.308C43.784 212.436 41.828 213 39.5 213H30.896C30.272 213 29.744 212.796 29.312 212.388C28.904 211.956 28.7 211.428 28.7 210.804V189.996C28.7 189.372 28.904 188.856 29.312 188.448C29.744 188.016 30.272 187.8 30.896 187.8H39.5ZM39.14 208.86C40.652 208.86 41.888 208.476 42.848 207.708C43.808 206.916 44.504 205.884 44.936 204.612C45.392 203.316 45.62 201.912 45.62 200.4C45.62 199.272 45.488 198.204 45.224 197.196C44.984 196.164 44.6 195.264 44.072 194.496C43.544 193.704 42.872 193.08 42.056 192.624C41.24 192.168 40.268 191.94 39.14 191.94H32.84L33.2 191.616V209.256L32.984 208.86H39.14ZM56.6304 187.8H68.6904C69.3144 187.8 69.8304 188.004 70.2384 188.412C70.6704 188.796 70.8864 189.3 70.8864 189.924C70.8864 190.524 70.6704 191.016 70.2384 191.4C69.8304 191.76 69.3144 191.94 68.6904 191.94H58.6104L58.9344 191.328V198.348L58.6464 198.06H67.0704C67.6944 198.06 68.2104 198.264 68.6184 198.672C69.0504 199.056 69.2664 199.56 69.2664 200.184C69.2664 200.784 69.0504 201.276 68.6184 201.66C68.2104 202.02 67.6944 202.2 67.0704 202.2H58.7544L58.9344 201.912V209.184L58.6464 208.86H68.6904C69.3144 208.86 69.8304 209.076 70.2384 209.508C70.6704 209.916 70.8864 210.396 70.8864 210.948C70.8864 211.548 70.6704 212.04 70.2384 212.424C69.8304 212.808 69.3144 213 68.6904 213H56.6304C56.0064 213 55.4784 212.796 55.0464 212.388C54.6384 211.956 54.4344 211.428 54.4344 210.804V189.996C54.4344 189.372 54.6384 188.856 55.0464 188.448C55.4784 188.016 56.0064 187.8 56.6304 187.8ZM93.4319 187.728C94.0319 187.728 94.5479 187.932 94.9799 188.34C95.4359 188.724 95.6639 189.216 95.6639 189.816C95.6639 190.128 95.5919 190.452 95.4479 190.788L86.5559 211.596C86.3399 212.076 86.0279 212.436 85.6199 212.676C85.2359 212.892 84.8399 213 84.4319 213C84.0479 212.976 83.6759 212.856 83.3159 212.64C82.9559 212.4 82.6799 212.064 82.4879 211.632L73.5959 190.752C73.5239 190.608 73.4759 190.464 73.4519 190.32C73.4279 190.152 73.4159 189.996 73.4159 189.852C73.4159 189.156 73.6679 188.628 74.1719 188.268C74.6759 187.884 75.1559 187.692 75.6119 187.692C76.5239 187.692 77.1839 188.16 77.5919 189.096L85.4759 207.636L84.2159 207.672L91.4519 189.096C91.8599 188.184 92.5199 187.728 93.4319 187.728ZM110.234 187.8C111.962 187.8 113.498 188.124 114.842 188.772C116.186 189.42 117.314 190.332 118.226 191.508C119.162 192.66 119.858 194.004 120.314 195.54C120.794 197.052 121.034 198.672 121.034 200.4C121.034 202.728 120.614 204.852 119.774 206.772C118.934 208.668 117.71 210.18 116.102 211.308C114.518 212.436 112.562 213 110.234 213H101.63C101.006 213 100.478 212.796 100.046 212.388C99.6384 211.956 99.4344 211.428 99.4344 210.804V189.996C99.4344 189.372 99.6384 188.856 100.046 188.448C100.478 188.016 101.006 187.8 101.63 187.8H110.234ZM109.874 208.86C111.386 208.86 112.622 208.476 113.582 207.708C114.542 206.916 115.238 205.884 115.67 204.612C116.126 203.316 116.354 201.912 116.354 200.4C116.354 199.272 116.222 198.204 115.958 197.196C115.718 196.164 115.334 195.264 114.806 194.496C114.278 193.704 113.606 193.08 112.79 192.624C111.974 192.168 111.002 191.94 109.874 191.94H103.574L103.934 191.616V209.256L103.718 208.86H109.874ZM134.245 193.452L126.469 211.74C126.301 212.196 126.037 212.556 125.677 212.82C125.341 213.06 124.969 213.18 124.561 213.18C123.913 213.18 123.433 213 123.121 212.64C122.809 212.28 122.653 211.836 122.653 211.308C122.653 211.092 122.689 210.864 122.761 210.624L131.725 189.096C131.917 188.616 132.205 188.244 132.589 187.98C132.997 187.716 133.429 187.608 133.885 187.656C134.317 187.656 134.713 187.788 135.073 188.052C135.457 188.292 135.733 188.64 135.901 189.096L144.757 210.192C144.877 210.504 144.937 210.792 144.937 211.056C144.937 211.704 144.721 212.22 144.289 212.604C143.881 212.988 143.425 213.18 142.921 213.18C142.489 213.18 142.093 213.048 141.733 212.784C141.397 212.52 141.133 212.16 140.941 211.704L133.201 193.668L134.245 193.452ZM127.585 207.348L129.565 203.208H139.285L139.969 207.348H127.585ZM154.724 213C154.052 213 153.5 212.796 153.068 212.388C152.636 211.956 152.42 211.428 152.42 210.804V189.924H157.1V210.804C157.1 211.428 156.872 211.956 156.416 212.388C155.984 212.796 155.42 213 154.724 213ZM146.768 191.94C146.144 191.94 145.616 191.748 145.184 191.364C144.776 190.98 144.572 190.476 144.572 189.852C144.572 189.228 144.776 188.736 145.184 188.376C145.616 187.992 146.144 187.8 146.768 187.8H162.752C163.376 187.8 163.892 187.992 164.3 188.376C164.732 188.76 164.948 189.264 164.948 189.888C164.948 190.512 164.732 191.016 164.3 191.4C163.892 191.76 163.376 191.94 162.752 191.94H146.768ZM170.923 187.8H182.983C183.607 187.8 184.123 188.004 184.531 188.412C184.963 188.796 185.179 189.3 185.179 189.924C185.179 190.524 184.963 191.016 184.531 191.4C184.123 191.76 183.607 191.94 182.983 191.94H172.903L173.227 191.328V198.348L172.939 198.06H181.363C181.987 198.06 182.503 198.264 182.911 198.672C183.343 199.056 183.559 199.56 183.559 200.184C183.559 200.784 183.343 201.276 182.911 201.66C182.503 202.02 181.987 202.2 181.363 202.2H173.047L173.227 201.912V209.184L172.939 208.86H182.983C183.607 208.86 184.123 209.076 184.531 209.508C184.963 209.916 185.179 210.396 185.179 210.948C185.179 211.548 184.963 212.04 184.531 212.424C184.123 212.808 183.607 213 182.983 213H170.923C170.299 213 169.771 212.796 169.339 212.388C168.931 211.956 168.727 211.428 168.727 210.804V189.996C168.727 189.372 168.931 188.856 169.339 188.448C169.771 188.016 170.299 187.8 170.923 187.8ZM199.733 187.8C200.981 187.8 202.145 188.16 203.225 188.88C204.329 189.6 205.217 190.572 205.889 191.796C206.561 193.02 206.897 194.388 206.897 195.9C206.897 197.388 206.561 198.744 205.889 199.968C205.217 201.192 204.329 202.176 203.225 202.92C202.145 203.64 200.981 204 199.733 204H193.109L193.469 203.352V210.804C193.469 211.428 193.277 211.956 192.893 212.388C192.509 212.796 192.005 213 191.381 213C190.781 213 190.289 212.796 189.905 212.388C189.521 211.956 189.329 211.428 189.329 210.804V189.996C189.329 189.372 189.533 188.856 189.941 188.448C190.373 188.016 190.901 187.8 191.525 187.8H199.733ZM199.733 199.896C200.189 199.896 200.633 199.704 201.065 199.32C201.497 198.936 201.857 198.444 202.145 197.844C202.433 197.22 202.577 196.572 202.577 195.9C202.577 195.204 202.433 194.556 202.145 193.956C201.857 193.356 201.497 192.876 201.065 192.516C200.633 192.132 200.189 191.94 199.733 191.94H193.037L193.469 191.292V200.472L193.073 199.896H199.733Z" fill="#00619A"/>
<path d="M117.499 5.32442L118.842 0.20412C117.964 -0.0680401 117.034 -0.0680401 116.157 0.20412L117.499 5.32442ZM48.8994 26.659L47.5568 21.5387C46.4446 21.8838 45.4804 22.646 44.8347 23.6904C44.189 24.7349 43.9036 25.9942 44.0288 27.2457L48.8994 26.659ZM58.6994 122.665L53.8288 123.251C53.9188 124.136 54.2108 124.982 54.6781 125.712C55.1454 126.443 55.7732 127.034 56.5042 127.433L58.6994 122.665ZM117.499 154.667L115.304 159.435C115.986 159.806 116.737 160 117.499 160C118.262 160 119.013 159.806 119.695 159.435L117.499 154.667ZM176.3 122.665L178.495 127.433C179.226 127.034 179.854 126.443 180.321 125.712C180.788 124.982 181.08 124.136 181.17 123.251L176.3 122.665ZM186.1 26.659L190.97 27.2457C191.098 25.9925 190.814 24.7306 190.168 23.6839C189.522 22.6372 188.556 21.8734 187.442 21.528L186.1 26.659ZM116.157 0.20412L47.5568 21.5387L50.242 31.7793L118.842 10.4447L116.157 0.20412ZM44.0288 27.235L53.8288 123.241L63.57 122.067L53.77 26.0616L44.0288 27.235ZM56.5042 127.433L115.304 159.435L119.695 149.888L60.8946 117.886L56.5042 127.433ZM119.695 159.435L178.495 127.433L174.104 117.886L115.304 149.888L119.695 159.435ZM181.17 123.241L190.97 27.235L181.229 26.0616L171.429 122.067L181.17 123.241ZM187.442 21.5174L118.842 0.182786L116.157 10.4447L184.757 31.7793L187.442 21.5174Z" fill="url(#paint0_linear_5105_14101)"/>
<rect x="109.809" y="42.9668" width="47.6279" height="9.28722" rx="4.64361" fill="url(#paint1_linear_5105_14101)"/>
<rect x="77.5635" y="42.9668" width="29.5825" height="9.28722" rx="4.64361" fill="url(#paint2_linear_5105_14101)"/>
<rect x="77.5635" y="64.7441" width="19.2286" height="9.60747" rx="4.80374" fill="url(#paint3_linear_5105_14101)"/>
<rect x="109.809" y="64.7441" width="18.9328" height="9.60747" rx="4.80374" fill="url(#paint4_linear_5105_14101)"/>
<rect x="77.5635" y="85.8809" width="24.2577" height="9.60747" rx="4.80374" fill="url(#paint5_linear_5105_14101)"/>
<rect x="109.809" y="85.8809" width="47.6279" height="9.28722" rx="4.64361" fill="url(#paint6_linear_5105_14101)"/>
<rect x="99.75" y="107.336" width="25.1452" height="9.28722" rx="4.64361" fill="url(#paint7_linear_5105_14101)"/>
<rect x="77.5635" y="107.336" width="16.862" height="9.28722" rx="4.64361" fill="url(#paint8_linear_5105_14101)"/>
<defs>
<linearGradient id="paint0_linear_5105_14101" x1="34" y1="86" x2="199.5" y2="81.5" gradientUnits="userSpaceOnUse">
<stop stop-color="#08955E"/>
<stop offset="1" stop-color="#004BBB" stop-opacity="0.5"/>
</linearGradient>
<linearGradient id="paint1_linear_5105_14101" x1="106.569" y1="47.9587" x2="159.022" y2="39.9977" gradientUnits="userSpaceOnUse">
<stop stop-color="#08955E"/>
<stop offset="1" stop-color="#004BBB" stop-opacity="0.5"/>
</linearGradient>
<linearGradient id="paint2_linear_5105_14101" x1="75.5511" y1="47.9587" x2="108.588" y2="44.8444" gradientUnits="userSpaceOnUse">
<stop stop-color="#08955E"/>
<stop offset="1" stop-color="#004BBB" stop-opacity="0.5"/>
</linearGradient>
<linearGradient id="paint3_linear_5105_14101" x1="76.2554" y1="69.9082" x2="97.8442" y2="68.6294" gradientUnits="userSpaceOnUse">
<stop stop-color="#08955E"/>
<stop offset="1" stop-color="#004BBB" stop-opacity="0.5"/>
</linearGradient>
<linearGradient id="paint4_linear_5105_14101" x1="108.521" y1="69.9082" x2="129.78" y2="68.6683" gradientUnits="userSpaceOnUse">
<stop stop-color="#08955E"/>
<stop offset="1" stop-color="#004BBB" stop-opacity="0.5"/>
</linearGradient>
<linearGradient id="paint5_linear_5105_14101" x1="75.9133" y1="91.0449" x2="103.092" y2="89.014" gradientUnits="userSpaceOnUse">
<stop stop-color="#08955E"/>
<stop offset="1" stop-color="#004BBB" stop-opacity="0.5"/>
</linearGradient>
<linearGradient id="paint6_linear_5105_14101" x1="106.569" y1="90.8727" x2="159.022" y2="82.9118" gradientUnits="userSpaceOnUse">
<stop stop-color="#08955E"/>
<stop offset="1" stop-color="#004BBB" stop-opacity="0.5"/>
</linearGradient>
<linearGradient id="paint7_linear_5105_14101" x1="98.0394" y1="112.328" x2="126.189" y2="110.072" gradientUnits="userSpaceOnUse">
<stop stop-color="#08955E"/>
<stop offset="1" stop-color="#004BBB" stop-opacity="0.5"/>
</linearGradient>
<linearGradient id="paint8_linear_5105_14101" x1="76.4164" y1="112.328" x2="95.3599" y2="111.31" gradientUnits="userSpaceOnUse">
<stop stop-color="#08955E"/>
<stop offset="1" stop-color="#004BBB" stop-opacity="0.5"/>
</linearGradient>
</defs>
</svg>
