<svg width="265" height="87" viewBox="0 0 265 87" fill="none" xmlns="http://www.w3.org/2000/svg">
<path d="M121.183 58.9624H131.25V63.6794H117.5L121.183 58.9624Z" fill="white"/>
<path d="M261.317 58.9624H251.25V63.6794H265L261.317 58.9624Z" fill="white"/>
<path d="M117.842 39.6885V39.3271H118.34C118.9 39.3271 119.297 39.1481 119.531 38.79C119.674 38.5752 119.746 38.0934 119.746 37.3447V28.79C119.746 27.9632 119.655 27.4456 119.473 27.2373C119.219 26.9508 118.841 26.8076 118.34 26.8076H117.842V26.4463H123.232C125.212 26.4463 126.715 26.6709 127.744 27.1201C128.779 27.5693 129.609 28.318 130.234 29.3662C130.866 30.4144 131.182 31.6253 131.182 32.999C131.182 34.8415 130.622 36.3812 129.502 37.6182C128.245 38.9984 126.331 39.6885 123.76 39.6885H117.842ZM121.621 38.7314C122.448 38.9137 123.141 39.0049 123.701 39.0049C125.212 39.0049 126.465 38.4743 127.461 37.4131C128.457 36.3519 128.955 34.9131 128.955 33.0967C128.955 31.2673 128.457 29.8252 127.461 28.7705C126.465 27.7158 125.186 27.1885 123.623 27.1885C123.037 27.1885 122.37 27.2829 121.621 27.4717V38.7314ZM138.133 27.1689V32.4033H141.043C141.798 32.4033 142.303 32.2894 142.557 32.0615C142.895 31.762 143.084 31.2347 143.123 30.4795H143.484V35.0889H143.123C143.032 34.4443 142.941 34.0309 142.85 33.8486C142.732 33.6208 142.54 33.4417 142.273 33.3115C142.007 33.1813 141.596 33.1162 141.043 33.1162H138.133V37.4814C138.133 38.0674 138.159 38.4255 138.211 38.5557C138.263 38.6794 138.354 38.7803 138.484 38.8584C138.615 38.93 138.862 38.9658 139.227 38.9658H141.473C142.221 38.9658 142.765 38.9137 143.104 38.8096C143.442 38.7054 143.768 38.5003 144.08 38.1943C144.484 37.7907 144.897 37.182 145.32 36.3682H145.711L144.568 39.6885H134.363V39.3271H134.832C135.145 39.3271 135.441 39.2523 135.721 39.1025C135.929 38.9984 136.069 38.8421 136.141 38.6338C136.219 38.4255 136.258 37.999 136.258 37.3545V28.751C136.258 27.9111 136.173 27.3936 136.004 27.1982C135.77 26.9378 135.379 26.8076 134.832 26.8076H134.363V26.4463H144.568L144.715 29.3467H144.334C144.197 28.6501 144.044 28.1715 143.875 27.9111C143.712 27.6507 143.468 27.4521 143.143 27.3154C142.882 27.2178 142.423 27.1689 141.766 27.1689H138.133ZM162.379 26.4463V26.8076C161.91 26.8923 161.555 27.042 161.314 27.2568C160.969 27.5758 160.663 28.0641 160.396 28.7217L155.777 39.9912H155.416L150.455 28.5752C150.201 27.9893 150.022 27.6312 149.918 27.501C149.755 27.2992 149.553 27.1429 149.312 27.0322C149.078 26.915 148.759 26.8402 148.355 26.8076V26.4463H153.766V26.8076C153.154 26.8662 152.757 26.9704 152.574 27.1201C152.392 27.2699 152.301 27.4619 152.301 27.6963C152.301 28.0218 152.451 28.5296 152.75 29.2197L156.119 36.9834L159.244 29.3174C159.55 28.5622 159.703 28.0381 159.703 27.7451C159.703 27.5563 159.609 27.3773 159.42 27.208C159.231 27.0322 158.912 26.9085 158.463 26.8369C158.43 26.8304 158.375 26.8206 158.297 26.8076V26.4463H162.379ZM164.975 39.6885V39.3271H165.473C166.033 39.3271 166.43 39.1481 166.664 38.79C166.807 38.5752 166.879 38.0934 166.879 37.3447V28.79C166.879 27.9632 166.788 27.4456 166.605 27.2373C166.352 26.9508 165.974 26.8076 165.473 26.8076H164.975V26.4463H170.365C172.344 26.4463 173.848 26.6709 174.877 27.1201C175.912 27.5693 176.742 28.318 177.367 29.3662C177.999 30.4144 178.314 31.6253 178.314 32.999C178.314 34.8415 177.755 36.3812 176.635 37.6182C175.378 38.9984 173.464 39.6885 170.893 39.6885H164.975ZM168.754 38.7314C169.581 38.9137 170.274 39.0049 170.834 39.0049C172.344 39.0049 173.598 38.4743 174.594 37.4131C175.59 36.3519 176.088 34.9131 176.088 33.0967C176.088 31.2673 175.59 29.8252 174.594 28.7705C173.598 27.7158 172.318 27.1885 170.756 27.1885C170.17 27.1885 169.503 27.2829 168.754 27.4717V38.7314ZM190.236 35.2549H185.109L184.211 37.3447C183.99 37.859 183.879 38.2432 183.879 38.4971C183.879 38.6989 183.973 38.8779 184.162 39.0342C184.357 39.1839 184.774 39.2816 185.412 39.3271V39.6885H181.242V39.3271C181.796 39.2295 182.154 39.1025 182.316 38.9463C182.648 38.6338 183.016 37.999 183.42 37.042L188.078 26.1436H188.42L193.029 37.1592C193.4 38.0446 193.736 38.6208 194.035 38.8877C194.341 39.1481 194.764 39.2946 195.305 39.3271V39.6885H190.08V39.3271C190.607 39.3011 190.962 39.2132 191.145 39.0635C191.333 38.9137 191.428 38.7314 191.428 38.5166C191.428 38.2301 191.298 37.7777 191.037 37.1592L190.236 35.2549ZM189.963 34.5322L187.717 29.1807L185.412 34.5322H189.963ZM206.885 26.4463L207.031 29.5518H206.66C206.589 29.0049 206.491 28.6143 206.367 28.3799C206.165 28.0023 205.895 27.7256 205.557 27.5498C205.225 27.3675 204.785 27.2764 204.238 27.2764H202.373V37.3936C202.373 38.2074 202.461 38.7152 202.637 38.917C202.884 39.1904 203.265 39.3271 203.779 39.3271H204.238V39.6885H198.623V39.3271H199.092C199.652 39.3271 200.049 39.1579 200.283 38.8193C200.426 38.611 200.498 38.1357 200.498 37.3936V27.2764H198.906C198.288 27.2764 197.848 27.3219 197.588 27.4131C197.249 27.5368 196.96 27.7744 196.719 28.126C196.478 28.4775 196.335 28.9528 196.289 29.5518H195.918L196.074 26.4463H206.885ZM213.719 27.1689V32.4033H216.629C217.384 32.4033 217.889 32.2894 218.143 32.0615C218.481 31.762 218.67 31.2347 218.709 30.4795H219.07V35.0889H218.709C218.618 34.4443 218.527 34.0309 218.436 33.8486C218.318 33.6208 218.126 33.4417 217.859 33.3115C217.592 33.1813 217.182 33.1162 216.629 33.1162H213.719V37.4814C213.719 38.0674 213.745 38.4255 213.797 38.5557C213.849 38.6794 213.94 38.7803 214.07 38.8584C214.201 38.93 214.448 38.9658 214.812 38.9658H217.059C217.807 38.9658 218.351 38.9137 218.689 38.8096C219.028 38.7054 219.354 38.5003 219.666 38.1943C220.07 37.7907 220.483 37.182 220.906 36.3682H221.297L220.154 39.6885H209.949V39.3271H210.418C210.73 39.3271 211.027 39.2523 211.307 39.1025C211.515 38.9984 211.655 38.8421 211.727 38.6338C211.805 38.4255 211.844 37.999 211.844 37.3545V28.751C211.844 27.9111 211.759 27.3936 211.59 27.1982C211.355 26.9378 210.965 26.8076 210.418 26.8076H209.949V26.4463H220.154L220.301 29.3467H219.92C219.783 28.6501 219.63 28.1715 219.461 27.9111C219.298 27.6507 219.054 27.4521 218.729 27.3154C218.468 27.2178 218.009 27.1689 217.352 27.1689H213.719ZM227.867 33.4873V37.3447C227.867 38.1781 227.958 38.6956 228.141 38.8975C228.388 39.1839 228.762 39.3271 229.264 39.3271H229.771V39.6885H224.098V39.3271H224.596C225.156 39.3271 225.556 39.1449 225.797 38.7803C225.927 38.5785 225.992 38.0999 225.992 37.3447V28.79C225.992 27.9567 225.904 27.4391 225.729 27.2373C225.475 26.9508 225.097 26.8076 224.596 26.8076H224.098V26.4463H228.951C230.136 26.4463 231.07 26.57 231.754 26.8174C232.438 27.0583 233.014 27.4684 233.482 28.0479C233.951 28.6273 234.186 29.3141 234.186 30.1084C234.186 31.1891 233.827 32.068 233.111 32.7451C232.402 33.4222 231.396 33.7607 230.094 33.7607C229.775 33.7607 229.43 33.738 229.059 33.6924C228.688 33.6468 228.29 33.5785 227.867 33.4873ZM227.867 32.9307C228.212 32.9958 228.518 33.0446 228.785 33.0771C229.052 33.1097 229.28 33.126 229.469 33.126C230.146 33.126 230.729 32.8656 231.217 32.3447C231.712 31.8174 231.959 31.137 231.959 30.3037C231.959 29.7308 231.842 29.2002 231.607 28.7119C231.373 28.2171 231.041 27.8493 230.611 27.6084C230.182 27.361 229.693 27.2373 229.146 27.2373C228.814 27.2373 228.388 27.2992 227.867 27.4229V32.9307Z" fill="white"/>
<path d="M151.066 57.8271L151.188 59.6279H151.066C150.905 59.0889 150.674 58.7008 150.375 58.4639C150.076 58.2269 149.716 58.1084 149.297 58.1084C148.945 58.1084 148.628 58.1982 148.344 58.3779C148.06 58.555 147.836 58.8389 147.672 59.2295C147.51 59.6201 147.43 60.1058 147.43 60.6865C147.43 61.1657 147.507 61.5811 147.66 61.9326C147.814 62.2842 148.044 62.5537 148.352 62.7412C148.661 62.9287 149.014 63.0225 149.41 63.0225C149.754 63.0225 150.057 62.9495 150.32 62.8037C150.583 62.6553 150.872 62.3623 151.188 61.9248L151.309 62.0029C151.043 62.4743 150.733 62.8193 150.379 63.0381C150.025 63.2568 149.604 63.3662 149.117 63.3662C148.24 63.3662 147.56 63.0407 147.078 62.3896C146.719 61.9053 146.539 61.335 146.539 60.6787C146.539 60.1501 146.658 59.6644 146.895 59.2217C147.132 58.779 147.457 58.4365 147.871 58.1943C148.288 57.9495 148.742 57.8271 149.234 57.8271C149.617 57.8271 149.995 57.9209 150.367 58.1084C150.477 58.1657 150.555 58.1943 150.602 58.1943C150.672 58.1943 150.733 58.1696 150.785 58.1201C150.853 58.0498 150.901 57.9521 150.93 57.8271H151.066ZM156.912 57.8271C157.599 57.8271 158.194 58.0889 158.697 58.6123C159.202 59.1331 159.455 59.7842 159.455 60.5654C159.455 61.3701 159.201 62.0381 158.693 62.5693C158.185 63.1006 157.571 63.3662 156.849 63.3662C156.12 63.3662 155.507 63.1071 155.009 62.5889C154.515 62.0706 154.267 61.4001 154.267 60.5771C154.267 59.736 154.554 59.0498 155.127 58.5186C155.624 58.0576 156.219 57.8271 156.912 57.8271ZM156.838 58.1123C156.364 58.1123 155.983 58.2881 155.697 58.6396C155.34 59.0771 155.162 59.7178 155.162 60.5615C155.162 61.4261 155.347 62.0915 155.716 62.5576C156 62.9118 156.375 63.0889 156.841 63.0889C157.339 63.0889 157.749 62.8949 158.072 62.5068C158.397 62.1188 158.56 61.5068 158.56 60.6709C158.56 59.7646 158.382 59.0889 158.025 58.6436C157.739 58.2894 157.343 58.1123 156.838 58.1123ZM162.062 57.9482H163.499L166.738 61.9209V58.8662C166.738 58.5407 166.701 58.3376 166.628 58.2568C166.532 58.1475 166.379 58.0928 166.171 58.0928H165.988V57.9482H167.831V58.0928H167.644C167.42 58.0928 167.261 58.1605 167.167 58.2959C167.11 58.3792 167.081 58.5693 167.081 58.8662V63.3311H166.941L163.448 59.0654V62.3271C163.448 62.6527 163.484 62.8558 163.554 62.9365C163.653 63.0459 163.805 63.1006 164.011 63.1006H164.198V63.2451H162.355V63.1006H162.538C162.765 63.1006 162.925 63.0329 163.019 62.8975C163.076 62.8141 163.105 62.624 163.105 62.3271V58.6436C162.951 58.4639 162.834 58.3454 162.753 58.2881C162.675 58.2308 162.559 58.1774 162.405 58.1279C162.33 58.1045 162.215 58.0928 162.062 58.0928V57.9482ZM174.016 57.8271V59.6592H173.872C173.825 59.3076 173.74 59.0277 173.618 58.8193C173.498 58.611 173.326 58.4456 173.102 58.3232C172.878 58.2008 172.647 58.1396 172.407 58.1396C172.136 58.1396 171.912 58.223 171.735 58.3896C171.558 58.5537 171.47 58.7412 171.47 58.9521C171.47 59.1136 171.526 59.2607 171.638 59.3936C171.799 59.5889 172.183 59.8493 172.79 60.1748C173.285 60.4404 173.622 60.6449 173.802 60.7881C173.984 60.9287 174.123 61.0954 174.22 61.2881C174.318 61.4808 174.368 61.6826 174.368 61.8936C174.368 62.2946 174.212 62.641 173.899 62.9326C173.589 63.2217 173.19 63.3662 172.7 63.3662C172.546 63.3662 172.402 63.3545 172.266 63.3311C172.186 63.318 172.018 63.2712 171.763 63.1904C171.51 63.1071 171.35 63.0654 171.282 63.0654C171.217 63.0654 171.165 63.085 171.126 63.124C171.089 63.1631 171.062 63.2438 171.044 63.3662H170.899V61.5498H171.044C171.111 61.93 171.203 62.2152 171.317 62.4053C171.432 62.5928 171.606 62.749 171.841 62.874C172.078 62.999 172.337 63.0615 172.618 63.0615C172.943 63.0615 173.2 62.9756 173.388 62.8037C173.578 62.6318 173.673 62.4287 173.673 62.1943C173.673 62.0641 173.636 61.9326 173.563 61.7998C173.493 61.667 173.382 61.5433 173.231 61.4287C173.13 61.3506 172.852 61.1852 172.399 60.9326C171.946 60.6774 171.623 60.4743 171.43 60.3232C171.24 60.1722 171.096 60.0055 170.997 59.8232C170.898 59.641 170.848 59.4404 170.848 59.2217C170.848 58.8415 170.994 58.5146 171.286 58.2412C171.578 57.9652 171.949 57.8271 172.399 57.8271C172.68 57.8271 172.979 57.8962 173.294 58.0342C173.44 58.0993 173.542 58.1318 173.602 58.1318C173.67 58.1318 173.725 58.1123 173.766 58.0732C173.811 58.0316 173.846 57.9495 173.872 57.8271H174.016ZM181.018 58.0928V57.9482H182.893V58.0928H182.694C182.485 58.0928 182.325 58.18 182.213 58.3545C182.159 58.4352 182.131 58.6227 182.131 58.917V61.0654C182.131 61.5967 182.078 62.0094 181.971 62.3037C181.867 62.5954 181.66 62.8467 181.35 63.0576C181.043 63.266 180.623 63.3701 180.092 63.3701C179.514 63.3701 179.075 63.2699 178.776 63.0693C178.476 62.8688 178.264 62.5993 178.139 62.2607C178.056 62.029 178.014 61.5941 178.014 60.9561V58.8857C178.014 58.5602 177.968 58.3467 177.877 58.2451C177.789 58.1436 177.644 58.0928 177.444 58.0928H177.245V57.9482H179.534V58.0928H179.33C179.112 58.0928 178.955 58.1618 178.862 58.2998C178.797 58.3936 178.764 58.5889 178.764 58.8857V61.1943C178.764 61.4001 178.782 61.6357 178.819 61.9014C178.858 62.167 178.927 62.374 179.026 62.5225C179.125 62.6709 179.267 62.7933 179.452 62.8896C179.639 62.986 179.868 63.0342 180.139 63.0342C180.485 63.0342 180.795 62.9587 181.069 62.8076C181.342 62.6566 181.528 62.4639 181.627 62.2295C181.729 61.9925 181.78 61.5928 181.78 61.0303V58.8857C181.78 58.555 181.743 58.348 181.67 58.2646C181.569 58.1501 181.418 58.0928 181.217 58.0928H181.018ZM189.969 61.7803L190.098 61.8076L189.645 63.2451H185.543V63.1006H185.742C185.966 63.1006 186.126 63.0277 186.223 62.8818C186.277 62.7985 186.305 62.6058 186.305 62.3037V58.8857C186.305 58.555 186.268 58.348 186.195 58.2646C186.094 58.1501 185.943 58.0928 185.742 58.0928H185.543V57.9482H187.941V58.0928C187.66 58.0902 187.462 58.1162 187.348 58.1709C187.236 58.2256 187.159 58.2946 187.117 58.3779C187.076 58.4613 187.055 58.6605 187.055 58.9756V62.3037C187.055 62.5199 187.076 62.6683 187.117 62.749C187.148 62.8037 187.197 62.8441 187.262 62.8701C187.327 62.8962 187.53 62.9092 187.871 62.9092H188.258C188.664 62.9092 188.949 62.8792 189.113 62.8193C189.277 62.7594 189.427 62.654 189.562 62.5029C189.698 62.3493 189.833 62.1084 189.969 61.7803ZM196.568 57.9482L196.627 59.1904H196.478C196.449 58.9717 196.41 58.8154 196.361 58.7217C196.28 58.5706 196.172 58.46 196.037 58.3896C195.904 58.3167 195.728 58.2803 195.509 58.2803H194.763V62.3271C194.763 62.6527 194.798 62.8558 194.869 62.9365C194.968 63.0459 195.12 63.1006 195.326 63.1006H195.509V63.2451H193.263V63.1006H193.451C193.675 63.1006 193.834 63.0329 193.927 62.8975C193.985 62.8141 194.013 62.624 194.013 62.3271V58.2803H193.377C193.129 58.2803 192.953 58.2985 192.849 58.335C192.714 58.3844 192.598 58.4795 192.502 58.6201C192.405 58.7607 192.348 58.9508 192.33 59.1904H192.181L192.244 57.9482H196.568ZM201.698 63.1006V63.2451H199.429V63.1006H199.616C199.835 63.1006 199.994 63.0368 200.093 62.9092C200.155 62.8258 200.187 62.6253 200.187 62.3076V58.8857C200.187 58.6175 200.17 58.4404 200.136 58.3545C200.11 58.2894 200.057 58.2334 199.976 58.1865C199.861 58.124 199.741 58.0928 199.616 58.0928H199.429V57.9482H201.698V58.0928H201.507C201.291 58.0928 201.133 58.1566 201.034 58.2842C200.969 58.3675 200.937 58.568 200.937 58.8857V62.3076C200.937 62.5758 200.954 62.7529 200.987 62.8389C201.014 62.904 201.068 62.96 201.152 63.0068C201.264 63.0693 201.382 63.1006 201.507 63.1006H201.698ZM204.188 57.9482H205.626L208.864 61.9209V58.8662C208.864 58.5407 208.828 58.3376 208.755 58.2568C208.658 58.1475 208.506 58.0928 208.298 58.0928H208.114V57.9482H209.958V58.0928H209.77C209.546 58.0928 209.388 58.1605 209.294 58.2959C209.236 58.3792 209.208 58.5693 209.208 58.8662V63.3311H209.067L205.575 59.0654V62.3271C205.575 62.6527 205.61 62.8558 205.68 62.9365C205.779 63.0459 205.932 63.1006 206.138 63.1006H206.325V63.2451H204.481V63.1006H204.665C204.891 63.1006 205.052 63.0329 205.145 62.8975C205.203 62.8141 205.231 62.624 205.231 62.3271V58.6436C205.078 58.4639 204.96 58.3454 204.88 58.2881C204.802 58.2308 204.686 58.1774 204.532 58.1279C204.457 58.1045 204.342 58.0928 204.188 58.0928V57.9482ZM217.385 57.8271L217.522 59.499H217.385C217.247 59.0824 217.069 58.7686 216.85 58.5576C216.535 58.2529 216.13 58.1006 215.635 58.1006C214.961 58.1006 214.448 58.3675 214.096 58.9014C213.802 59.3519 213.655 59.8883 213.655 60.5107C213.655 61.016 213.752 61.4769 213.948 61.8936C214.143 62.3102 214.398 62.6162 214.713 62.8115C215.031 63.0042 215.357 63.1006 215.69 63.1006C215.885 63.1006 216.074 63.0758 216.256 63.0264C216.439 62.9769 216.614 62.904 216.784 62.8076V61.2764C216.784 61.0107 216.763 60.8376 216.721 60.7568C216.682 60.6735 216.62 60.611 216.534 60.5693C216.45 60.5251 216.302 60.5029 216.088 60.5029V60.3545H218.139V60.5029H218.041C217.838 60.5029 217.699 60.5706 217.623 60.7061C217.571 60.8024 217.545 60.9925 217.545 61.2764V62.8975C217.246 63.0589 216.95 63.1774 216.659 63.2529C216.367 63.3285 216.043 63.3662 215.686 63.3662C214.662 63.3662 213.885 63.0381 213.354 62.3818C212.955 61.8896 212.756 61.3219 212.756 60.6787C212.756 60.2126 212.868 59.766 213.092 59.3389C213.358 58.8311 213.722 58.4404 214.186 58.167C214.574 57.9404 215.032 57.8271 215.561 57.8271C215.754 57.8271 215.928 57.8428 216.084 57.874C216.243 57.9053 216.467 57.9743 216.756 58.0811C216.902 58.1357 217 58.1631 217.049 58.1631C217.099 58.1631 217.14 58.141 217.174 58.0967C217.211 58.0498 217.233 57.96 217.241 57.8271H217.385Z" fill="white"/>
<path d="M45.6247 2.8647L46.4581 0.109823C45.9133 -0.0366077 45.336 -0.0366077 44.7913 0.109823L45.6247 2.8647ZM3.04132 14.3434L2.2079 11.5885C1.51748 11.7742 0.918927 12.1842 0.518133 12.7462C0.11734 13.3081 -0.0598557 13.9857 0.0178973 14.659L3.04132 14.3434ZM9.12465 65.9974L6.10123 66.313C6.1571 66.789 6.33833 67.2442 6.62841 67.6371C6.91848 68.0301 7.30818 68.3483 7.76199 68.5628L9.12465 65.9974ZM45.6247 83.2153L44.262 85.7808C44.685 85.9808 45.1516 86.0849 45.6247 86.0849C46.0978 86.0849 46.5644 85.9808 46.9873 85.7808L45.6247 83.2153ZM82.1247 65.9974L83.4874 68.5628C83.9412 68.3483 84.3309 68.0301 84.6209 67.6371C84.911 67.2442 85.0922 66.789 85.1481 66.313L82.1247 65.9974ZM88.208 14.3434L91.2315 14.659C91.3107 13.9848 91.1342 13.3058 90.7333 12.7427C90.3324 12.1795 89.733 11.7686 89.0415 11.5827L88.208 14.3434ZM44.7913 0.109823L2.2079 11.5885L3.87473 17.0982L46.4581 5.61958L44.7913 0.109823ZM0.0178973 14.6533L6.10123 66.3073L12.1481 65.6759L6.06473 14.022L0.0178973 14.6533ZM7.76199 68.5628L44.262 85.7808L46.9873 80.6441L10.4873 63.4261L7.76199 68.5628ZM46.9873 85.7808L83.4874 68.5628L80.762 63.4261L44.262 80.6441L46.9873 85.7808ZM85.1481 66.3073L91.2315 14.6533L85.1846 14.022L79.1013 65.6759L85.1481 66.3073ZM89.0415 11.577L46.4581 0.0983443L44.7913 5.61958L87.3746 17.0982L89.0415 11.577Z" fill="white"/>
<rect x="41.25" y="24.7642" width="25" height="4.71698" rx="2.35849" fill="white"/>
<rect x="23.75" y="24.7642" width="15" height="4.71698" rx="2.35849" fill="white"/>
<rect x="23.75" y="35.3774" width="10" height="4.71698" rx="2.35849" fill="white"/>
<rect x="40.001" y="35.3774" width="10" height="4.71698" rx="2.35849" fill="white"/>
<rect x="23.75" y="45.9907" width="12.5" height="4.71698" rx="2.35849" fill="white"/>
<rect x="40.001" y="45.9907" width="25" height="4.71698" rx="2.35849" fill="white"/>
<rect x="35" y="55.4243" width="13.75" height="4.71698" rx="2.35849" fill="white"/>
<rect x="23.75" y="55.4243" width="8.75" height="4.71698" rx="2.35849" fill="white"/>
</svg>
